# xmcd
# 
# Track frame offsets:
#     150
#     18665
#     41005
#     60047
#     81477
#     102362
#     122450
#     144897
#     159367
#     164400
#     180535
#     201047
#     220477
#     242920
#     267540
#     284740
#     305532
#     319335
# 
# Disc length: 4613
# 
# Revision: 16
# Processed by: cddbd v1.5.2PL0 Copyright (c) Steve Scherf et al.
# Submitted via: fre:ac v1.0.31
# 
DISCID=08120312
DTITLE=Styx - Come Sail Away The Styx Anthology Disc 2
DYEAR=2004
DGENRE=Rock/Pop
TTITLE0=Blue Collar Man (Long Nights)
TTITLE1=Sing For the Day
TTITLE2=Renegade
TTITLE3=Pieces of Eight
TTITLE4=Lights
TTITLE5=Babe
TTITLE6=Borrowed Time
TTITLE7=Boat on the River
TTITLE8=A.D. 1928
TTITLE9=Rockin' the Paradise
TTITLE10=Too Much Time on My Hands
TTITLE11=The Best of Times
TTITLE12=Snowblind
TTITLE13=Mr. Roboto
TTITLE14=Love Is the Ritual
TTITLE15=Show Me the Way
TTITLE16=Dear John
TTITLE17=One with Everything
EXTD=
EXTT0=
EXTT1=
EXTT2=
EXTT3=
EXTT4=
EXTT5=
EXTT6=
EXTT7=
EXTT8=
EXTT9=
EXTT10=
EXTT11=
EXTT12=
EXTT13=
EXTT14=
EXTT15=
EXTT16=
EXTT17=
PLAYORDER=
